<svg viewBox="0 0 1200 227.22" xmlns="http://www.w3.org/2000/svg"><path d="m104.99 176.53c-10.61 0-19.13-2.12-25.57-6.36-3.85-2.52-8.01-6.91-12.49-13.2v16.15h-32.88v-173.47h33.47v61.75c4.24-5.97 8.92-10.53 14.02-13.67 6.05-3.93 13.75-5.89 23.1-5.89 16.89 0 30.11 6.09 39.65 18.27s14.32 27.89 14.32 47.14-4.71 36.49-14.14 49.61-22.59 19.68-39.48 19.68zm18.38-65.76c0-9.11-1.18-16.65-3.53-22.63-4.48-11.31-12.73-16.97-24.75-16.97s-20.55 5.54-25.1 16.61c-2.36 5.89-3.53 13.51-3.53 22.86 0 11 2.43 20.11 7.31 27.34 4.87 7.23 12.3 10.84 22.27 10.84 8.64 0 15.36-3.49 20.15-10.49 4.79-6.99 7.19-16.18 7.19-27.57z" fill="#fff"/><path d="m217.17 44.66v128.45h-34.06v-128.45z" fill="#fff"/><path d="m366.6-.35v173.46h-32.64v-17.8c-4.79 7.62-10.25 13.16-16.38 16.62-6.13 3.45-13.75 5.18-22.86 5.18-15.01 0-27.63-6.07-37.89-18.21-10.25-12.14-15.38-27.71-15.38-46.72 0-21.92 5.05-39.16 15.14-51.73s23.59-18.85 40.48-18.85c7.78 0 14.69 1.71 20.74 5.13s10.96 8.15 14.73 14.2v-61.28zm-90.5 110.06c0 11.86 2.36 21.33 7.07 28.4 4.64 7.15 11.7 10.72 21.21 10.72s16.73-3.53 21.68-10.6 7.42-16.22 7.42-27.46c0-15.71-3.97-26.94-11.9-33.7-4.87-4.08-10.53-6.13-16.97-6.13-9.82 0-17.03 3.71-21.62 11.14-4.6 7.42-6.89 16.64-6.89 27.63z" fill="#fff"/><g fill="#3774f9"><path d="m485.62 50.56c10.05 6.44 15.83 17.52 17.32 33.23h-33.59c-.47-4.32-1.69-7.74-3.65-10.25-3.69-4.56-9.98-6.84-18.86-6.84-7.31 0-12.51 1.14-15.61 3.42s-4.65 4.95-4.65 8.01c0 3.85 1.65 6.64 4.95 8.37 3.3 1.81 14.97 4.91 35 9.31 13.36 3.14 23.37 7.9 30.05 14.26 6.6 6.44 9.9 14.49 9.9 24.16 0 12.73-4.73 23.12-14.2 31.17s-24.1 12.08-43.9 12.08-35.1-4.26-44.72-12.79c-9.62-8.52-14.44-19.38-14.44-32.58h34.06c.71 5.97 2.24 10.21 4.6 12.73 4.16 4.48 11.86 6.72 23.1 6.72 6.6 0 11.84-.98 15.73-2.95 3.89-1.96 5.83-4.91 5.83-8.84s-1.57-6.64-4.71-8.6-14.81-5.34-35-10.13c-14.53-3.61-24.79-8.13-30.76-13.55-5.97-5.34-8.96-13.04-8.96-23.1 0-11.86 4.66-22.06 13.96-30.58 9.31-8.52 22.41-12.79 39.3-12.79s29.11 3.18 39.24 9.55z"/><path d="m638.93 58.45c10.37 11.08 15.55 27.34 15.55 48.79 0 22.62-5.09 39.87-15.26 51.73s-23.27 17.8-39.3 17.8c-10.21 0-18.7-2.56-25.45-7.66-3.69-2.83-7.31-6.95-10.84-12.37v66.93h-33.23v-179.01h32.17v18.97c3.61-5.58 7.46-9.98 11.55-13.2 7.46-5.73 16.34-8.6 26.63-8.6 15.01 0 27.73 5.54 38.18 16.62zm-19.09 50.44c0-9.9-2.26-18.66-6.78-26.28s-11.84-11.43-21.98-11.43c-12.18 0-20.54 5.77-25.1 17.32-2.36 6.13-3.53 13.91-3.53 23.33 0 14.93 3.97 25.42 11.9 31.46 4.71 3.53 10.29 5.3 16.73 5.3 9.35 0 16.48-3.61 21.39-10.84s7.36-16.85 7.36-28.87z"/><path d="m794.83 97.69v75.42h-34.29v-78.13c0-6.91-1.18-12.49-3.54-16.73-3.06-5.97-8.88-8.96-17.44-8.96s-15.61 2.97-20.21 8.9c-4.59 5.93-6.89 14.4-6.89 25.4v69.53h-33.47v-173.12h33.47v61.4c4.87-7.46 10.51-12.67 16.91-15.61 6.4-2.95 13.14-4.42 20.21-4.42 7.93 0 15.14 1.37 21.62 4.12s11.8 6.95 15.97 12.61c3.53 4.79 5.69 9.72 6.48 14.79.78 5.07 1.18 13.34 1.18 24.81z"/><path d="m936.12 135.4c-.87 7.62-4.83 15.36-11.9 23.22-11 12.49-26.4 18.74-46.19 18.74-16.34 0-30.76-5.26-43.25-15.79s-18.74-27.65-18.74-51.38c0-22.23 5.63-39.28 16.91-51.14 11.27-11.86 25.9-17.8 43.9-17.8 10.68 0 20.31 2 28.87 6.01s15.63 10.33 21.21 18.97c5.03 7.62 8.29 16.46 9.78 26.51.86 5.89 1.22 14.38 1.06 25.45h-87.91c.47 12.89 4.52 21.92 12.14 27.1 4.63 3.22 10.21 4.83 16.73 4.83 6.91 0 12.53-1.96 16.85-5.89 2.36-2.12 4.44-5.07 6.25-8.84h34.29zm-33.23-39.36c-.55-8.88-3.24-15.61-8.07-20.21-4.83-4.59-10.82-6.89-17.97-6.89-7.78 0-13.81 2.44-18.09 7.31s-6.97 11.47-8.07 19.8h52.2z"/><path d="m1024.98 75.65c-13.51 0-22.59 4.4-27.22 13.2-2.59 4.95-3.89 12.57-3.89 22.86v61.4h-33.82v-128.45h32.05v22.39c5.18-8.56 9.7-14.41 13.55-17.56 6.28-5.26 14.45-7.89 24.51-7.89.63 0 1.16.02 1.59.06s1.39.1 2.89.18v34.41c-2.12-.23-4.01-.39-5.66-.47s-2.99-.12-4.01-.12z"/><path d="m1164.27 135.4c-.87 7.62-4.83 15.36-11.9 23.22-11 12.49-26.4 18.74-46.19 18.74-16.34 0-30.76-5.26-43.25-15.79s-18.74-27.65-18.74-51.38c0-22.23 5.63-39.28 16.91-51.14 11.27-11.86 25.9-17.8 43.9-17.8 10.68 0 20.31 2 28.87 6.01s15.63 10.33 21.21 18.97c5.03 7.62 8.29 16.46 9.78 26.51.86 5.89 1.22 14.38 1.06 25.45h-87.91c.47 12.89 4.52 21.92 12.14 27.1 4.63 3.22 10.21 4.83 16.73 4.83 6.91 0 12.53-1.96 16.85-5.89 2.36-2.12 4.44-5.07 6.25-8.84h34.29zm-33.23-39.36c-.55-8.88-3.24-15.61-8.07-20.21-4.83-4.59-10.82-6.89-17.97-6.89-7.78 0-13.81 2.44-18.09 7.31s-6.97 11.47-8.07 19.8h52.2z"/><path d="m226.83 26.33c0-14.74-11.95-26.68-26.68-26.68s-26.68 11.95-26.68 26.68"/></g></svg>